<?xml version="1.0" encoding="UTF-8"?><svg id="uuid-8dc467c9-9e68-4042-af70-322c173902f9" xmlns="http://www.w3.org/2000/svg" xmlns:xlink="http://www.w3.org/1999/xlink" viewBox="0 0 1368.14 845.26"><defs><clipPath id="uuid-f2fb6cf2-cffd-4fbd-8012-1289e44f0438"><path d="m1336.56,223.29l-39.03-13.96c-5.17-1.85-10.56-2.78-16.03-2.78-.62,0-1.22.05-1.83.07-4.43-3.95-9.67-7.13-15.59-9.25l-43.48-15.55c.5-7.93-1-15.9-4.5-23.28-5.44-11.5-15.03-20.18-27.01-24.47l-133.2-47.63c-5.16-1.85-10.56-2.78-16.03-2.78-20.06,0-38.08,12.69-44.83,31.58-2.02,5.65-2.93,11.5-2.78,17.33-3.18,3.68-5.82,7.88-7.77,12.49-.27-.29-.52-.59-.8-.88-22.41-23.55-53.22-37.38-89.08-40-4.11-.3-8.32-.45-12.51-.45-14.21,0-28.84,1.72-43.63,5.13-11.74-4.05-24.35-6.58-37.64-7.55-4.1-.3-8.28-.45-12.42-.45-3.9,0-7.82.15-11.75.41l-4.01-57.41c-1.73-24.59-22.4-43.86-47.06-43.86-9.4,0-18.51,2.79-26.35,8.09l-56.92,38.45c-13.91,9.39-21.83,25.63-20.65,42.37.64,9.07,3.91,17.6,9.16,24.7l-12.1.98-2.92.49c-2.48.42-4.88,1-7.19,1.74-5.21-.62-10.53-.93-15.93-.93-7.57,0-15.13.63-22.46,1.87-33.86,5.72-61.49,24.53-78.21,53.05-11.28-9.19-24.54-16.68-39.53-22.06l6.27-35.71c4.04-23.01-11.27-44.99-34.13-49.01l-53.72-9.43c-2.42-.42-4.88-.64-7.33-.64-11.29,0-21.65,4.45-29.31,11.79-5.77-7.02-12.28-13.51-19.5-19.36-25.77-20.85-58.72-32.33-92.77-32.33-5.55,0-11.17.31-16.69.92-13.23,1.47-26.64,4.93-39.96,10.32l-50.41,3.11-1.52.17c-22.96,2.55-39.71,22.82-37.92,45.53l5.75,97.6L10.74,277.01c-12.62,18.86-14.24,43.22-4.22,63.59l65.99,134.12c1.44,2.93,3.12,5.7,4.96,8.34-17.96,9.8-28.23,30.54-23.83,51.57,1.23,5.87,3.54,11.29,6.68,16.11-.94,5.66-.88,11.57.36,17.51,1.23,5.85,3.53,11.27,6.66,16.08-.95,5.75-.85,11.67.38,17.55,3.73,17.79,17.33,31.63,34.3,36.21-8.63,11.31-12.5,25.79-10.61,39.91,1.92,14.31,9.63,27.43,21.18,36.07-10.27,10.14-16.11,24.19-16.05,38.62.06,14.59,6.14,28.74,16.69,38.82l14.15,13.52c10.09,9.63,23.33,14.94,37.28,14.94s27.46-5.41,37.59-15.24l14.56-14.13,62.05,45.55c8.13,5.97,17.76,9.12,27.84,9.12s19.22-3,27.22-8.68l40.44-28.69c3.29-2.33,6.23-5.07,8.78-8.11,9.43,23.15,31.65,38.53,57.37,38.53,2.69,0,5.4-.18,8.07-.53l.53-.07,60.29-9.71,1.12-.23,70.31-11.09,2.17-.45c19.88-4.2,35.74-17.96,43.59-35.63,11.29,3,23.09,4.57,35.11,4.63l2.17,11.44c3.78,19.94,21.26,34.41,41.56,34.41h0c14.84,0,28.77-7.95,36.34-20.75l7.2-12.17,14.32-1.77c15.25-1.88,27.85-11.56,33.68-25.31,20.66,9.3,43.38,14.17,66.55,14.16,13.71,0,27.62-1.7,41.34-5.04l1.3-.34c18.66-5.06,33.32-16.08,42.39-31.89,5.07-8.84,8.1-18.99,8.76-29.35.54-7.78.57-13.58.61-19.18.02-3.22.04-6.26.16-9.8l.04-1.14v-1.2c-.04-4.5-.5-8.9-1.37-13.14l16.7-13.49c9.03-7.02,13.55-14.91,15.06-17.53,5.78-10.07,8.3-21.19,7.67-32.72,1.88.08,3.78.12,5.7.12,13.69,0,28.05-2.04,42.8-6.09l49.11,2.76h1.03c22.43,0,40.75-16.83,42.62-39.14l.05-.57,7.57-145.79v-.95c0-6.53-1.46-12.73-4.06-18.27l24.57,8.87c4.7,1.7,9.61,2.56,14.6,2.56,18.05,0,34.3-11.41,40.43-28.39l33.38-92.47c3.49,2.46,7.32,4.47,11.45,5.94l39.04,13.96c5.16,1.85,10.56,2.78,16.03,2.78,20.06,0,38.08-12.69,44.83-31.59,8.84-24.72-4.08-52.02-28.8-60.86ZM205.38,624.01l-2.48-1.82,5.55-1.16-3.07,2.98Z" fill="none"/></clipPath></defs><g clip-path="url(#uuid-f2fb6cf2-cffd-4fbd-8012-1289e44f0438)"><path d="m1336.56,223.29l-39.03-13.96c-5.17-1.85-10.56-2.78-16.03-2.78-.62,0-1.22.05-1.83.07-4.43-3.95-9.67-7.13-15.59-9.25l-43.48-15.55c.5-7.93-1-15.9-4.5-23.28-5.44-11.5-15.03-20.18-27.01-24.47l-133.2-47.63c-5.16-1.85-10.56-2.78-16.03-2.78-20.06,0-38.08,12.69-44.83,31.58-2.02,5.65-2.93,11.5-2.78,17.33-3.18,3.68-5.82,7.88-7.77,12.49-.27-.29-.52-.59-.8-.88-22.41-23.55-53.22-37.38-89.08-40-4.11-.3-8.32-.45-12.51-.45-14.21,0-28.84,1.72-43.63,5.13-11.74-4.05-24.35-6.58-37.64-7.55-4.1-.3-8.28-.45-12.42-.45-3.9,0-7.82.15-11.75.41l-4.01-57.41c-1.73-24.59-22.4-43.86-47.06-43.86-9.4,0-18.51,2.79-26.35,8.09l-56.92,38.45c-13.91,9.39-21.83,25.63-20.65,42.37.64,9.07,3.91,17.6,9.16,24.7l-12.1.98-2.92.49c-2.48.42-4.88,1-7.19,1.74-5.21-.62-10.53-.93-15.93-.93-7.57,0-15.13.63-22.46,1.87-33.86,5.72-61.49,24.53-78.21,53.05-11.28-9.19-24.54-16.68-39.53-22.06l6.27-35.71c4.04-23.01-11.27-44.99-34.13-49.01l-53.72-9.43c-2.42-.42-4.88-.64-7.33-.64-11.29,0-21.65,4.45-29.31,11.79-5.77-7.02-12.28-13.51-19.5-19.36-25.77-20.85-58.72-32.33-92.77-32.33-5.55,0-11.17.31-16.69.92-13.23,1.47-26.64,4.93-39.96,10.32l-50.41,3.11-1.52.17c-22.96,2.55-39.71,22.82-37.92,45.53l5.75,97.6L10.74,277.01c-12.62,18.86-14.24,43.22-4.22,63.59l65.99,134.12c1.44,2.93,3.12,5.7,4.96,8.34-17.96,9.8-28.23,30.54-23.83,51.57,1.23,5.87,3.54,11.29,6.68,16.11-.94,5.66-.88,11.57.36,17.51,1.23,5.85,3.53,11.27,6.66,16.08-.95,5.75-.85,11.67.38,17.55,3.73,17.79,17.33,31.63,34.3,36.21-8.63,11.31-12.5,25.79-10.61,39.91,1.92,14.31,9.63,27.43,21.18,36.07-10.27,10.14-16.11,24.19-16.05,38.62.06,14.59,6.14,28.74,16.69,38.82l14.15,13.52c10.09,9.63,23.33,14.94,37.28,14.94s27.46-5.41,37.59-15.24l14.56-14.13,62.05,45.55c8.13,5.97,17.76,9.12,27.84,9.12s19.22-3,27.22-8.68l40.44-28.69c3.29-2.33,6.23-5.07,8.78-8.11,9.43,23.15,31.65,38.53,57.37,38.53,2.69,0,5.4-.18,8.07-.53l.53-.07,60.29-9.71,1.12-.23,70.31-11.09,2.17-.45c19.88-4.2,35.74-17.96,43.59-35.63,11.29,3,23.09,4.57,35.11,4.63l2.17,11.44c3.78,19.94,21.26,34.41,41.56,34.41h0c14.84,0,28.77-7.95,36.34-20.75l7.2-12.17,14.32-1.77c15.25-1.88,27.85-11.56,33.68-25.31,20.66,9.3,43.38,14.17,66.55,14.16,13.71,0,27.62-1.7,41.34-5.04l1.3-.34c18.66-5.06,33.32-16.08,42.39-31.89,5.07-8.84,8.1-18.99,8.76-29.35.54-7.78.57-13.58.61-19.18.02-3.22.04-6.26.16-9.8l.04-1.14v-1.2c-.04-4.5-.5-8.9-1.37-13.14l16.7-13.49c9.03-7.02,13.55-14.91,15.06-17.53,5.78-10.07,8.3-21.19,7.67-32.72,1.88.08,3.78.12,5.7.12,13.69,0,28.05-2.04,42.8-6.09l49.11,2.76h1.03c22.43,0,40.75-16.83,42.62-39.14l.05-.57,7.57-145.79v-.95c0-6.53-1.46-12.73-4.06-18.27l24.57,8.87c4.7,1.7,9.61,2.56,14.6,2.56,18.05,0,34.3-11.41,40.43-28.39l33.38-92.47c3.49,2.46,7.32,4.47,11.45,5.94l39.04,13.96c5.16,1.85,10.56,2.78,16.03,2.78,20.06,0,38.08-12.69,44.83-31.59,8.84-24.72-4.08-52.02-28.8-60.86ZM205.38,624.01l-2.48-1.82,5.55-1.16-3.07,2.98Z" fill="#fff"/><path d="m440.54,801.67c-12.12,0-22.35-8.41-24.89-20.45l-.12-.59-34.31-219.05c-1.64-13.07,6.85-24.97,19.75-27.69l1.09-.22,58.67-9.44c1.11-.15,2.23-.22,3.32-.22,12.12,0,22.35,8.41,24.89,20.45l.12.59,21.41,136.62,47.3-7.46c3.77-.52,7.17-.24,10.5.72-1.31-6.33-1.98-12.82-1.98-19.41,0-30.07,10.89-55.41,31.49-73.29,18.31-15.89,43.44-24.64,70.77-24.64,36.6,0,67.59,16.94,84.89,45.83,1.66-4.01,3.58-7.91,5.74-11.67,19.89-34.66,51.5-53.75,88.99-53.75,21.63,0,43.99,6.28,64.68,18.15h0c14.84,8.51,28.28,20.25,36.89,32.21,10.05,13.96,12.54,26.95,7.01,36.59-.75,1.31-2.51,4.38-5.97,7l-27.99,22.6c-4.91,4.22-11.51,6.69-18,6.69-4.45,0-8.79-1.14-12.55-3.3-4.42-2.53-8.04-6.69-10.19-11.71l-.35-.86c-.48-1.3-4.12-5.95-9.86-9.24-3.12-1.79-6.34-2.82-8.83-2.82-1.44,0-5.26,0-10.05,8.35-2.03,3.53-2.63,7.01-1.75,10.08.9,3.12,3.34,5.89,7.07,8.03,7.27,4.17,18.17,5.1,30.09,2.45,2.26-.58,4.73-.89,7.22-.89,4.87,0,9.56,1.21,13.55,3.51,7.77,4.46,12.27,12.76,12.34,22.78v.38s-.01.37-.01.37c-.14,4.12-.16,7.56-.18,10.89-.03,5.34-.06,10.31-.53,17-.29,4.81-1.67,9.5-3.98,13.52-4.19,7.3-10.98,12.26-20.19,14.76l-.4.1c-10.9,2.66-21.87,4-32.66,4-21.99,0-43.41-5.62-61.93-16.25-18.28-10.49-32.85-25.05-42.63-42.49-6.28,13.31-16.03,25.23-28.6,34.88-19.45,14.93-44.85,23.85-67.94,23.85-25.24,0-48.98-9.03-66.85-25.42-1.98-1.81-3.87-3.71-5.67-5.68l5.21,34.81c1.65,13.12-7,25.4-19.68,28.07l-1.14.23-70.34,11.09-1.19.25-58.96,9.5c-1.1.14-2.21.22-3.31.22Zm-15.98-22.57l.05.24c1.64,7.76,8.19,13.18,15.93,13.18.7,0,1.41-.05,2.11-.14l.19-.03,58.4-9.42,1.21-.25,70.34-11.09.79-.17c8.04-1.7,13.53-9.55,12.49-17.86l-9.3-62.14-4.37-3.98c-3.63-3.31-8.5-4.84-13.29-4.18l-56.27,8.87-22.86-145.79c-1.64-7.76-8.19-13.18-15.93-13.18-.7,0-1.41.05-2.11.14l-.18.02-58.9,9.52c-8.2,1.73-13.6,9.29-12.56,17.59l.03.21,34.22,218.45Zm333.38-113.18l4.8,10.94c8.69,19.79,23.71,36.23,43.45,47.56,17.14,9.83,36.98,15.03,57.37,15.03,10.06,0,20.3-1.25,30.44-3.73l.29-.07c6.72-1.82,11.65-5.34,14.58-10.46,1.61-2.81,2.57-6.11,2.78-9.56.45-6.44.48-11.27.51-16.38.02-3.47.04-6.97.19-11.22v-.19s0-.19,0-.19c-.05-6.66-2.87-12.09-7.74-14.89-3.99-2.29-9.28-2.88-14.09-1.65-5.31,1.18-10.33,1.76-15.08,1.76-8.29,0-15.79-1.79-21.7-5.18-5.83-3.35-9.74-7.99-11.31-13.44-1.58-5.5-.68-11.44,2.61-17.17,7.43-12.95,15.38-12.95,17.99-12.95,4.1,0,8.85,1.43,13.39,4.04,7.18,4.12,12.51,10.29,13.89,14l.17.44c1.38,3.2,3.63,5.82,6.34,7.38,2.37,1.36,5.14,2.08,7.99,2.08,4.33,0,8.76-1.67,12.13-4.57l28.21-22.78c2.08-1.58,3.15-3.45,3.67-4.34,4.91-8.55-1.96-20.39-6.49-26.68-7.87-10.93-20.27-21.73-34.01-29.61-19.3-11.08-40.09-16.93-60.12-16.93-34.08,0-62.86,17.46-81.05,49.15-3.58,6.24-6.43,12.91-8.47,19.8l-3.47,11.73-5.09-11.12c-14.52-31.75-44.24-49.96-81.55-49.96-25.12,0-48.12,7.96-64.76,22.4-18.54,16.09-28.34,39.04-28.34,66.38,0,9.33,1.47,18.44,4.37,27.09l2.65,7.9,4.16,7.12c4.09,7,9.19,13.33,15.16,18.81,16.17,14.84,37.72,23.01,60.66,23.01,21.14,0,44.45-8.21,62.36-21.96,14.1-10.83,24.26-24.74,29.37-40.23l3.74-11.34Z" fill="#69e4fe"/><path d="m571.13,762.57l-70.46,11.11-1.11.23-58.12,9.37c-3.65.48-7.06-1.98-7.88-5.85l-34.17-218.14c-.42-3.38,1.76-6.73,5.35-7.49l.55-.12,57.84-9.31c3.65-.48,7.06,1.98,7.88,5.85l24.19,154.38,65.15-10.28c3.93-.54,7.4,2.2,8.16,5.79l8.47,56.57c.42,3.38-1.7,7-5.3,7.76l-.55.12Z" fill="#54a8dc"/><path d="m662.46,730.28c-41.46,0-77.84-30.01-77.84-74.78,0-52.4,39.17-79.62,83.94-79.62,56.21,0,80.38,44.01,80.38,77.07,0,49.6-50.36,77.33-86.48,77.33Zm32.3-77.84c0-4.83-1.02-29.51-26.96-29.51-21.37,0-27.47,18.06-27.47,29.51,0,17.55,13.74,29.25,28.23,29.25,18.06,0,26.2-14.75,26.2-29.25Z" fill="#1a5a8a"/><path d="m911.09,640.42c-2.67,2.38-6.77,3.28-9.72,1.59-.98-.56-1.93-1.76-2.48-3.06-2.3-6.21-9.34-13.83-17.92-18.76-6.38-3.66-28.55-14.43-43.89,12.3-9.43,16.43-3.85,33.97,12.09,43.11,10.54,6.05,25.48,8.43,43.44,4.39,2.32-.63,5.23-.59,7.43.68,1.72.98,3.11,3.09,3.14,7.02-.37,10.87.04,16.97-.68,27.31-.11,1.89-.6,3.89-1.59,5.61-1.69,2.94-4.46,4.94-9.09,6.19-30.69,7.48-59.02,2.31-81.08-10.35-40.7-23.36-60.42-72.48-35.66-115.63,31.52-54.92,88.21-52.05,128.67-28.84,27.22,15.62,40.64,37.66,37.12,43.79-.28.49-.7,1.23-1.23,1.58l-28.55,23.06Z" fill="#54a8dc"/><g><rect x="1015.81" y="161.32" width="73.48" height="21.95" rx="10.97" ry="10.97" transform="translate(119.47 -344.34) rotate(19.68)" fill="#69e4fe"/><rect x="1095.03" y="206.59" width="168.26" height="21.95" rx="10.97" ry="10.97" transform="translate(142.1 -384.32) rotate(19.68)" fill="#feb351"/><rect x="1024.75" y="144.12" width="163.4" height="21.95" rx="10.97" ry="10.97" transform="translate(116.82 -363.49) rotate(19.68)" fill="#cb4fff"/><rect x="1269.31" y="250.17" width="63.4" height="21.95" rx="10.97" ry="10.97" transform="translate(163.89 -422.8) rotate(19.68)" fill="#4fb3ff"/></g><path d="m105.86,459.5l-66.94-136.04c-3.98-8.09-3.34-17.69,1.67-25.18l84.35-125.99c5.01-7.49,13.65-11.74,22.64-11.14l151.28,10.05c8.99.6,16.99,5.95,20.97,14.04l66.94,136.04c3.98,8.09,3.34,17.69-1.67,25.18l-84.35,125.99c-5.01,7.49-13.65,11.74-22.64,11.14l-151.28-10.05c-8.99-.6-16.99-5.95-20.97-14.04Z" fill="#4fe5ff"/><path d="m197.17,315.11l-64.1,3.74c-3.68.1-6.41-2.36-6.81-6l-14.23-241.42c-.34-3.03,2.09-6.07,5.43-6.44l.61-.07,55.84-3.44c11.7-5.29,23.6-8.77,35.44-10.08,56.14-6.24,111.44,29.7,117.95,88.27,6.24,56.14-27.65,99.53-90.76,106.55-12.75,1.42-25.39.98-37.29-1.08l3.95,63.15c.07,3.37-2.36,6.41-5.39,6.74l-.61.07Zm-1.62-130.69c7.01,2.29,15.75,3.47,23.94,2.56,33.38-3.71,29.77-36.18,29.54-38.3-2.36-21.24-21.01-34.22-43.46-31.73-4.25.47-9.04,1.62-13.76,3.37l3.74,64.1Z" fill="#3d99d2"/><path d="m477.39,350.01c-3.38,1.9-6.21,2.23-8.62,1.81-1.07-.19-49.16-18.05-39.59-72.57,5.71-32.5-7.31-46.69-26.64-50.09l-1.34-.24-17.12,97.5c-.57,3.22-3.41,5.22-6.36,4.7l-53.72-9.43c-3.22-.57-5.22-3.41-4.65-6.63l38.58-219.71c.52-2.95,3.41-5.22,6.63-4.65l53.72,9.43c2.95.52,4.9,3.63,4.38,6.58l-12.26,69.84c3.27.3,6.49.86,9.45,1.38,50.5,8.87,85.5,46.03,76.97,99.35-2.8,17.51-1.66,31.55,9.66,44.34,1.38,1.63,3.86,4.83,3.34,7.79-.24,1.34-1.06,2.86-3.22,4.14l-29.2,16.47Z" fill="#3d99d2"/><path d="m697.01,295.32c-1.66,5.02-3.96,7.92-7.49,8.52-2.71.46-22.43-.67-38.15-11.13-12.87,9.71-26.97,15.44-40.8,17.77-45.3,7.65-90.23-20.47-97.6-64.14-5.5-32.55,9.63-83.37,63.34-92.45,13.56-2.29,27.36-1.55,38.72,1.27,1.31-2.17,3.61-3.4,6.87-3.95l1.36-.23,47.61-3.86c7.14-.65,9.64,2.56,10.19,5.81l.23,1.36c.37,25.33.56,49.57,3.59,67.47,2.75,16.28,7.7,27.43,17.16,30.58,2.94.9,6.2,2.02,6.66,4.73.09.54-.04,1.4-.4,2.58l-11.27,35.66Zm-76.8-64.86c-1.19-7.05-2.16-14.42-2.99-22.65-4.17-4.88-12.14-7.44-20-6.11-17.09,2.89-23.79,21.04-21.45,34.87,2.57,15.19,15.34,26.42,32.98,23.44,5.15-.87,10.94-2.96,16.72-6.73-2.01-6.92-3.83-14.42-5.25-22.83Z" fill="#54a8dc"/><path d="m824.03,315.76l-.61-.04c-3.05-.22-5.28-3.14-5.34-6.51l1.65-64.47c.72-30.87-4.74-44.12-23.81-47.05l-2.59,110.94c-.27,3.65-2.9,6.22-6.27,6.28l-57.14-1.42-.61-.04c-3.05-.22-5.28-3.14-5.34-6.51l3.96-158.9.04-.61c.24-3.35,2.86-5.61,5.93-5.69l18.34.42c15.91-4.04,31.31-5.37,45.93-4.3,13.7,1,26.34,4.07,37.88,9.5,20.02-5.88,38.84-7.88,55.89-6.63,53.59,3.92,90.41,40.59,89.71,96.25-.23,19.88,2.03,35.05,15.52,47.36,1.72,1.66,5.15,4.97,4.9,8.32-.11,1.52-.85,3.31-2.79,4.69-.04.61-27.73,23.38-27.73,23.38-3.57,2.8-6.4,3.82-9.45,3.6-4.26-.31-51.38-13.24-50.65-73.5.88-33-4.62-45.65-21.8-49.35l-2.46,109.11c-.27,3.65-2.9,6.22-6.27,6.28l-56.86-1.09Z" fill="#54a8dc"/><path d="m524.49,544.94c-3.22,0-5.94-2.72-5.94-5.94v-193.21c0-3.22,2.72-5.94,5.94-5.94h50.22c3.22,0,5.94,2.72,5.94,5.94v193.21c0,3.22-2.72,5.94-5.94,5.94h-50.22Zm125.18-1.48c-3.22-.25-5.69-2.97-5.69-6.18l3.96-71.25-52.69-2.47c-3.22-.25-5.69-2.97-5.69-5.94v-.49l1.98-43.29c.25-2.97,2.97-5.69,5.94-5.69h.49l52.69,2.72,3.46-66.55c.25-2.97,2.72-5.69,5.94-5.69h.49l49.72,2.72c3.22,0,5.69,2.97,5.69,6.18l-10.14,192.96c-.25,3.22-2.97,5.69-6.18,5.69l-49.97-2.72Z" fill="#54a8dc"/><path d="m840.16,500.96c-13.39,2.5-26.29,3.15-38.12,1.75-37.39-4.44-63.95-28.86-60.43-79.18,1.27-17.58,4.69-51,6.46-68.25,1.31-11.03,5.33-12.73,8.59-12.62.33-.51,42.38,1.48,46.95,2.02,5.38.64,7.21,3.58,7.1,6.84-.52,18.21-1.71,32.8-3.89,65-1.67,23.26,5.44,32.29,16.74,33.63,5.38.64,12.06-.48,19.17-2.91l15.82-91.96c.65-3.2,3.6-5.03,6.56-4.68l53.18,9.31c3.23.38,5.06,3.33,4.68,6.56l-23.86,139.01c-.65,3.2-3.6,5.03-6.56,4.68l-52.37-9.22Z" fill="#1f71aa"/><path d="m1040.47,567.52c-13.32,4.16-26.36,6.38-38.56,6.38-38.56,0-68.53-21.64-71.02-73.24-.83-18.03-1.39-52.44-1.66-70.19,0-11.37,3.88-13.59,7.21-13.87.28-.56,43.28-3.61,48-3.61,5.55,0,7.77,2.77,8.05,6.1,1.66,18.59,2.22,33.57,3.88,66.58,1.11,23.86,9.43,32.18,21.08,32.18,5.55,0,12.21-1.94,19.14-5.27l4.99-95.44c.28-3.33,3.05-5.55,6.1-5.55l55.21,3.05c3.33,0,5.55,2.77,5.55,6.1l-7.49,144.26c-.28,3.33-3.05,5.55-6.1,5.55l-54.38-3.05Z" fill="#90c6e9"/><path d="m1109.39,230.67l107.44,38.79c3.3,1.19,5,4.83,3.81,8.12l-34.48,95.5c-1.19,3.3-4.83,5-8.12,3.81l-107.44-38.79c-3.3-1.19-5-4.83-3.81-8.12l34.48-95.5c1.19-3.3,4.83-5,8.12-3.81Zm53.36,103.84l28.72-13.48-13.48-28.72-11.49,5.39,8.09,17.23-17.23,8.09,5.39,11.49Zm-49.9-41.87l17.23-8.09-5.39-11.49-28.72,13.48,13.48,28.72,11.49-5.39-8.09-17.23Zm15.58,39.36l43.27-51.85-12.7-4.59-43.27,51.85,12.7,4.59Z" fill="#ee4e4e"/><path d="m208.67,671.88l-41.33-30.34c-7.51-5.51-18.04-4.1-23.83,3.19l-12.17,15.32c-6.11,7.7-4.61,18.93,3.32,24.75l33.16,24.34,1.41,1.03-1.25,1.21-29.52,28.65c-7.05,6.85-7.01,18.18.1,24.97l14.15,13.51c6.74,6.43,17.36,6.39,24.04-.1l36.79-35.71,87.02,63.89c3.62,2.65,8.53,2.69,12.19.1l40.46-28.7h0c2.96-2.1,4.62-5.59,4.37-9.21l-9.78-142.43c-.25-3.62-2.36-6.85-5.59-8.52h0s-44-22.9-44-22.9c-3.98-2.07-8.84-1.36-12.06,1.76l-77.47,75.18Zm92.9,68.2l-48.57-35.66,43.24-41.96,5.33,77.62Z" fill="#69e5ff"/><path d="m662.8,76.91c-6.7,4.52-5.99,14.6,1.27,18.14l61.73,30.09c7.26,3.54,15.64-2.11,15.08-10.17l-4.79-68.54c-.57-8.07-9.66-12.5-16.36-7.97,0,0-56.93,38.45-56.93,38.45Zm43.54,9.78c-2.39-1.17-3.39-4.05-2.22-6.45l10.56-21.68c1.17-2.39,4.05-3.39,6.45-2.22s3.39,4.05,2.22,6.45l-10.56,21.68c-1.17,2.39-4.05,3.39-6.45,2.22Zm-8.43,17.4c-2.39-1.17-3.43-4.07-2.26-6.47s4.08-3.43,6.47-2.27l.04.02c2.39,1.17,3.39,4.05,2.22,6.45-1.17,2.39-4.08,3.43-6.47,2.27Z" fill="#feb351"/><g><rect x="88.48" y="506.26" width="96.32" height="21.95" rx="10.97" ry="10.97" transform="translate(-103.16 39.01) rotate(-11.83)" fill="#69e4fe"/><rect x="101.81" y="566.13" width="168.26" height="21.95" rx="10.97" ry="10.97" transform="translate(-114.39 50.39) rotate(-11.83)" fill="#feb351"/><rect x="168.6" y="503.75" width="295.06" height="21.95" rx="10.97" ry="10.97" transform="translate(-98.83 75.76) rotate(-11.83)" fill="#cb4fff"/><rect x="95.88" y="543.26" width="63.4" height="21.95" rx="10.97" ry="10.97" transform="translate(-110.94 37.94) rotate(-11.83)" fill="#4fb3ff"/></g><path d="m684.23,707.11l15.68,82.74c.97,5.1,7.73,6.29,10.38,1.82l8.55-14.45c4.93-8.34,13.46-13.92,23.07-15.11l16.94-2.09c5.15-.64,6.77-7.3,2.49-10.23l-69.5-47.65c-3.62-2.48-8.42.66-7.61,4.97Z"/><path d="m408.72,420.34c2.89,5.07,3.15,11.1,1.91,19.15,1.83.45,3.44,1.28,4.21,3.13l1.44,3.45c.41.99.5,2.08.24,3.12l-1.95,7.94c-.25,1.02-1.01,1.9-1.98,2.3-11.52,4.75-24.98,7.55-37.25,4.54-13.58-3.33-25.26-14.49-30.92-21.26-.68-.81-.94-1.93-.69-2.96l1.95-7.94c.26-1.05.84-1.97,1.66-2.66l2.87-2.39c1.54-1.28,3.36-1.27,5.19-.83,2.62-7.71,5.64-12.94,10.55-16.1,9.28-6,19.24-4.47,23.39-3.46l.12.03c4.07,1,13.75,4.22,19.26,13.92Zm-24.6,7.87c-.84-.21-1.82-.4-2.88-.55-.7,1.27-1.53,2.36-2.51,2.94-3.86,2.34-7.71,1.9-9.72,1.41-1.88-.46-3.76-1.34-5.12-2.75-1.65.13-3.28.49-3.82,2.26-1,3.36-1.84,6.75-2.69,10.14-.43,1.7-.85,3.41-1.29,5.11-.24.99.14,2.06.94,2.69,6.51,5.14,13.03,8.52,19.4,10.08s13.71,1.58,21.85.04c1-.19,1.82-.96,2.07-1.95,1.34-5.08,2.52-10.21,3.53-15.36h0c.35-1.83-.95-2.9-2.35-3.78-1.86.62-3.92.53-5.81.07-2-.49-5.62-1.88-7.96-5.75-.59-.97-.83-2.33-.86-3.77-.92-.33-1.85-.61-2.8-.85Zm-10.44,10.33c1.59.39,2.56,2,2.17,3.59l-1.3,5.31c-.39,1.59-2,2.56-3.59,2.17s-2.56-2-2.17-3.59l1.3-5.31c.39-1.59,2-2.56,3.59-2.17Zm14.76,3.62c1.59.39,2.56,2,2.17,3.59h0l-1.3,5.31c-.39,1.59-2,2.56-3.59,2.17s-2.56-2-2.17-3.59h0l1.3-5.31c.39-1.59,2-2.56,3.59-2.17Zm-13.79-31.06c-3.18-.45-6.04-.07-7.71,1.02-3.65,2.44-4.98,10.56-3.76,12.64.9,1.49,2.97,2.84,5.4,3.44,1.86.46,5.5.93,9.15-1.32,1.59-.92,3.15-3.83,3.83-6.99.53-2.55.33-4.8-.51-5.95-.9-1.3-3.41-2.38-6.39-2.84Zm18.79,5.88c-1.28.63-2.5,2.53-3.21,5.03-.86,3.12-.82,6.42.16,7.97,2.2,3.68,5.64,4.95,7.5,5.41,2.44.6,4.89.35,6.38-.55,2.05-1.28,4.63-9.1,2.52-12.95-.98-1.74-3.34-3.4-6.37-4.47-2.86-.98-5.58-1.18-6.98-.44Zm-7.78,4.94c-.71-.17-1.56-.34-2.51-.48-.03.51-.12,1.05-.21,1.64-.1.4-.2.8-.35,1.23.91.13,1.66.31,2.37.49s1.46.36,2.33.66c.06-.45.16-.85.26-1.25.19-.56.36-1.09.57-1.55-.91-.32-1.74-.57-2.45-.74Z"/><rect x="445.84" y="374.89" width="50.57" height="50.57" rx="5.62" ry="5.62" transform="translate(-97.13 156.9) rotate(-17.17)" fill="#ed4d4d"/><path d="m466.39,413.41c-.69.21-1.45.16-2.14-.2-1.37-.72-1.9-2.42-1.17-3.8l11.13-21.08c.72-1.37,2.42-1.9,3.8-1.17s1.9,2.42,1.17,3.8l-11.13,21.08c-.36.69-.97,1.16-1.66,1.37Z" fill="#fff"/><path d="m482.5,408.43c-.69.21-1.45.16-2.14-.2l-21.08-11.13c-1.37-.72-1.9-2.42-1.17-3.8s2.42-1.9,3.8-1.17l21.08,11.13c1.37.72,1.9,2.42,1.17,3.8-.36.69-.97,1.16-1.66,1.37Z" fill="#fff"/></g></svg>