<?xml version="1.0" encoding="UTF-8"?>
<svg id="uuid-a74d2c5e-3194-4b26-a2fb-dfda0355c50d" data-name="DESIGN" xmlns="http://www.w3.org/2000/svg" viewBox="0 0 1280 396.45">
  <g>
    <path d="M1212.18,257.82l-2.72-38.97c-.9-12.74-11.61-22.72-24.39-22.72-.96,0-1.91.07-2.86.18.16-8.41-2.35-17.52-7.58-26.68-6.56-11.51-16.86-22.69-29-31.48-11.08-8.02-23.11-13.97-35.47-17.6l1.47-6.01c1.13-4.63.76-9.41-1.08-13.84l-1.07-2.55c-.32-.76-.73-1.63-1.27-2.57-.15-5.11-1.22-10.79-4.35-16.27-7.39-13.04-19.58-17.7-26.18-19.32-.02,0-.14-.03-.16-.04-3.38-.81-6.84-1.23-10.3-1.23-7.82,0-15.32,2.17-21.64,6.26-5.32,3.42-8.91,7.96-11.41,12.42-.79.5-1.55,1.06-2.27,1.66l-2.23,1.86c-1.77,1.49-3.27,3.21-4.49,5.13-1.45-1.77-3.07-3.44-4.87-4.98-3.55-3.05-8.02-4.72-12.61-4.72-.82,0-1.73.06-2.55.17-.81.11-1.6.28-2.38.49-.77,0-1.55.06-2.3.16-4.49.62-8.58,2.85-11.62,6.22-1.41.13-4.47.41-4.47.41-.29.03-.69.08-.98.12-4.12.58-7.74,2.4-10.54,5.05,0,0,0,0,0,0-3.36.47-6.45,1.48-9.24,2.88-.8-.14-1.61-.24-2.45-.31-2.85-2.9-6.6-4.86-10.81-5.46-1.36-.2-2.75-.31-4.14-.31-1.32,0-2.65.09-3.93.27-2.24.31-4.36.9-6.34,1.69-.89-.08-1.78-.14-2.67-.14-1.31,0-2.63.09-3.94.27-2.9.41-5.61,1.26-8.08,2.45-.93-.14-1.86-.23-2.82-.23-.85,0-1.83.07-2.67.19-.33.05-.66.1-.99.17l-6.56,1.28c-.18.03-.36.06-.54.1l-4.68.92c-4.6.89-8.8,3.49-11.64,7.25-.29.38-.54.77-.79,1.17-.99.29-1.94.63-2.88,1.01-1.01-.16-2.05-.26-3.1-.26s-2.12.08-3.32.25c-2.51.35-4.87.99-7.06,1.84-.46-.03-.93-.07-1.4-.07-.53,0-1.08.02-1.63.07l-5.28.45c-.34.03-.67.07-1,.11-1.15.16-2.27.43-3.34.78-.88,0-1.76.07-2.61.19-1.74.24-4.33.61-7.09,1.52-3.07-15.8-15.8-27.71-32.03-29.46-1.3-.14-2.62-.21-3.93-.21-.28,0-.56,0-.84,0-.18,0-.36.01-.55.02l-42.47,2.21c-.26.01-.53.03-.79.06l-.89.08c-19.04,1.91-33.13,17.75-32.78,36.84,0,.19,0,.37.02.56l.42,8.72c-5.42,2.31-10.27,5.9-14.14,10.56l-35.18,42.41c-5.44-8.69-13.73-15.14-23.42-18.25-2.12-10.26-10.74-17.79-21.45-18.1l-.51-.03c-.65-4.89-2.69-9.5-5.83-13.32,3.47-4.3,5.86-9.49,6.71-15.02,1.65-10.71-2.54-21.21-11.22-28.16-4.33-3.57-9.87-5.53-15.64-5.53-2.81,0-5.66.45-8.48,1.35-5.32,1.69-10.25,4.88-14.38,9.23-3.03-1-6.25-1.54-9.58-1.54-1.27,0-2.57.08-3.86.23-8.39.86-15.82,6.16-19.93,14.25-1.21,2.39-2.1,4.96-2.7,7.65-8.36-5.16-17.04-6.89-17.16-6.91-1.93-.33-3.9-.5-5.84-.5-10.65,0-20.45,4.95-26.21,13.24-6.11,8.79-6.81,20.22-1.79,29.11-3.31,1.65-6.86,4.38-9.51,8.87-1.11-.17-2.24-.28-3.4-.28-.41,0-.83.01-1.24.03l-40.36,1.23c-.34.01-.68.03-1.02.06-11.44.98-20.18,9.97-20.95,21.22-3.01-9.75-11.99-16.33-22.82-16.33-.83,0-1.68.04-2.51.11-3.34.29-17.3,2.51-20.06,2.95-4.24.68-8.38,1.36-11.47,1.9-.08.01-.16.03-.24.04l2.22-42.32c.02-.32.03-.65.03-.97,0-12.51-9.83-22.73-22.05-23.11l-37.17-2.03c-.34-.02-.67-.03-1.01-.03h-.37c-11.83,0-21.88,9.32-22.87,21.22-.02.19-.03.38-.04.57l-1.65,31.73-16.83-.87v-28.78c0-12.65-10.29-22.94-22.94-22.94h-37.85c-12.65,0-22.94,10.29-22.94,22.94v20.26c-2.72-1.14-5.7-1.76-8.81-1.76-2.27,0-4.52.34-6.7,1.01l-28.32,8.75c-5.79,1.79-10.55,5.73-13.38,11.09-2.83,5.36-3.4,11.5-1.62,17.3l8.75,28.32c2.17,7.05,7.48,12.38,14.11,14.71-.94.71-1.84,1.47-2.67,2.32l-20.87,21.57-4.34-3.41c-4.49-3.52-10.08-5.46-15.74-5.46-8,0-15.66,3.87-20.48,10.35l-5.09,6.84c-8.13,10.93-6.5,26.42,3.42,35.43-8.59,10.28-8.09,25.85,1.45,35.56l5.98,6.09c4.88,4.96,11.35,7.69,18.24,7.69s13.44-2.77,18.31-7.8l3.84-3.97,23.62,18.51c3.99,3.13,8.96,4.86,14.01,4.86h0c4.88,0,9.72-1.62,13.62-4.57l11.79-8.88c4.53,4.6,10.82,7.45,17.83,7.45.25,0,.5,0,.75-.01l42.28-1.27c4.13-.12,8.07-1.24,11.56-3.22,3.31,1.61,7.03,2.53,10.99,2.53.25,0,.51,0,.76-.01l113.68-3.41c4.13-.12,8.07-1.24,11.56-3.22,3.31,1.61,7.03,2.53,10.99,2.53.25,0,.51,0,.76-.01l34.69-1.04c6.68-.2,12.87-2.99,17.45-7.85,4.58-4.86,6.99-11.21,6.79-17.89-.04-1.26-.2-2.49-.41-3.69l19.44-.58c.34-.01.69-.03,1.03-.06,11.95-1.03,20.94-10.78,21-22.73,12,9.92,27.77,15.35,46.39,15.35,9.93,0,20.43-1.57,31.25-4.66l37.76,2.12c.35.02.69.03,1.04.03,3.07,0,5.99-.59,8.66-1.65.73.86,1.6,1.66,2.67,2.36,15.05,9.94,33.22,12.71,50.68,8.54,1.5-.36,2.77-.93,3.84-1.65,5.66,7.03,13.77,11.93,22.9,13.49l69.69,11.88c2.08.35,4.2.53,6.3.53,11.19,0,21.7-4.94,28.84-13.55l8.39-10.11,38.58-1.88c.29-.01.58-.03.87-.06l.91-.09c14.3-1.44,26.08-11.3,30.68-24.33,9.22,4.42,19.29,7.29,29.83,8.43,1.92.21,3.89.35,5.87.42l1.2,14.84c.95,11.79,10.61,20.67,22.45,20.67,7.13,0,13.68-3.29,17.97-9.01l7.19-9.6c.72-.96,1.87-1.54,3.08-1.56l12.22-.19c9.45-.15,17.62-5.98,20.81-14.86.55-1.53.93-3.08,1.14-4.63,14.87,10.63,32.55,17.3,51.18,19.3,4.01.43,8.13.65,12.23.65,5.19,0,10.48-.35,15.71-1.04.1-.01.7-.1.76-.11,11.58-1.83,21.11-7.46,27.54-16.29,3.62-4.97,6.09-10.87,7.12-16.92.23-1.32.44-2.55.62-3.72l30.09,14.66c3.33,1.62,7.03,2.48,10.7,2.48h0c6.75,0,13.26-2.84,17.88-7.79,4.59-4.92,6.96-11.61,6.49-18.35Z" style="fill: #90c6e9;"/>
    <path d="M1199.88,245.51l-2.72-38.97c-.9-12.74-11.61-22.72-24.39-22.72-.96,0-1.91.07-2.86.18.16-8.41-2.35-17.52-7.58-26.68-6.56-11.51-16.86-22.69-29-31.48-11.08-8.02-23.11-13.97-35.47-17.6l1.47-6.01c1.13-4.63.76-9.41-1.08-13.84l-1.07-2.55c-.32-.76-.73-1.63-1.27-2.57-.15-5.11-1.22-10.79-4.35-16.27-7.39-13.04-19.58-17.7-26.18-19.32-.02,0-.14-.03-.16-.04-3.38-.81-6.84-1.23-10.3-1.23-7.82,0-15.32,2.17-21.64,6.26-5.32,3.42-8.91,7.96-11.41,12.42-.79.5-1.55,1.06-2.27,1.66l-2.23,1.86c-1.77,1.49-3.27,3.21-4.49,5.13-1.45-1.77-3.07-3.44-4.87-4.98-3.55-3.05-8.02-4.72-12.61-4.72-.82,0-1.73.06-2.55.17-.81.11-1.6.28-2.38.49-.77,0-1.55.06-2.3.16-4.49.62-8.58,2.85-11.62,6.22-1.41.13-4.47.41-4.47.41-.29.03-.69.08-.98.12-4.12.58-7.74,2.4-10.54,5.05,0,0,0,0,0,0-3.36.47-6.45,1.48-9.24,2.88-.8-.14-1.61-.24-2.45-.31-2.85-2.9-6.6-4.86-10.81-5.46-1.36-.2-2.75-.31-4.14-.31-1.32,0-2.65.09-3.93.27-2.24.31-4.36.9-6.34,1.69-.89-.08-1.78-.14-2.67-.14-1.31,0-2.63.09-3.94.27-2.9.41-5.61,1.26-8.08,2.45-.93-.14-1.86-.23-2.82-.23-.85,0-1.83.07-2.67.19-.33.05-.66.1-.99.17l-6.56,1.28c-.18.03-.36.06-.54.1l-4.68.92c-4.6.89-8.8,3.49-11.64,7.25-.29.38-.54.77-.79,1.17-.99.29-1.94.63-2.88,1.01-1.01-.16-2.05-.26-3.1-.26s-2.12.08-3.32.25c-2.51.35-4.87.99-7.06,1.84-.46-.03-.93-.07-1.4-.07-.53,0-1.08.02-1.63.07l-5.28.45c-.34.03-.67.07-1,.11-1.15.16-2.27.43-3.34.78-.88,0-1.76.07-2.61.19-1.74.24-4.33.61-7.09,1.52-3.07-15.8-15.8-27.71-32.03-29.46-1.3-.14-2.62-.21-3.93-.21-.28,0-.56,0-.84,0-.18,0-.36.01-.55.02l-42.47,2.21c-.26.01-.53.03-.79.06l-.89.08c-19.04,1.91-33.13,17.75-32.78,36.84,0,.19,0,.37.02.56l.42,8.72c-5.42,2.31-10.27,5.9-14.14,10.56l-35.18,42.41c-5.44-8.69-13.73-15.14-23.42-18.25-2.12-10.26-10.74-17.79-21.45-18.1l-.51-.03c-.65-4.89-2.69-9.5-5.83-13.32,3.47-4.3,5.86-9.49,6.71-15.02,1.65-10.71-2.54-21.21-11.22-28.16-4.33-3.57-9.87-5.53-15.64-5.53-2.81,0-5.66.45-8.48,1.35-5.32,1.69-10.25,4.88-14.38,9.23-3.03-1-6.25-1.54-9.58-1.54-1.27,0-2.57.08-3.86.23-8.39.86-15.82,6.16-19.93,14.25-1.21,2.39-2.1,4.96-2.7,7.65-8.36-5.16-17.04-6.89-17.16-6.91-1.93-.33-3.9-.5-5.84-.5-10.65,0-20.45,4.95-26.21,13.24-6.11,8.79-6.81,20.22-1.79,29.11-3.31,1.65-6.86,4.38-9.51,8.87-1.11-.17-2.24-.28-3.4-.28-.41,0-.83.01-1.24.03l-40.36,1.23c-.34.01-.68.03-1.02.06-11.44.98-20.18,9.97-20.95,21.22-3.01-9.75-11.99-16.33-22.82-16.33-.83,0-1.68.04-2.51.11-3.34.29-17.3,2.51-20.06,2.95-4.24.68-8.38,1.36-11.47,1.9-.08.01-.16.03-.24.04l2.22-42.32c.02-.32.03-.65.03-.97,0-12.51-9.83-22.73-22.05-23.11l-37.17-2.03c-.34-.02-.67-.03-1.01-.03h-.37c-11.83,0-21.88,9.32-22.87,21.22-.02.19-.03.38-.04.57l-1.65,31.73-16.83-.87v-28.78c0-12.65-10.29-22.94-22.94-22.94h-37.85c-12.65,0-22.94,10.29-22.94,22.94v20.26c-2.72-1.14-5.7-1.76-8.81-1.76-2.27,0-4.52.34-6.7,1.01l-28.32,8.75c-5.79,1.79-10.55,5.73-13.38,11.09-2.83,5.36-3.4,11.5-1.62,17.3l8.75,28.32c2.17,7.05,7.48,12.38,14.11,14.71-.94.71-1.84,1.47-2.67,2.32l-20.87,21.57-4.34-3.41c-4.49-3.52-10.08-5.46-15.74-5.46-8,0-15.66,3.87-20.48,10.35l-5.09,6.84c-8.13,10.93-6.5,26.42,3.42,35.43-8.59,10.28-8.09,25.85,1.45,35.56l5.98,6.09c4.88,4.96,11.35,7.69,18.24,7.69s13.44-2.77,18.31-7.8l3.84-3.97,23.62,18.51c3.99,3.13,8.96,4.86,14.01,4.86h0c4.88,0,9.72-1.62,13.62-4.57l11.79-8.88c4.53,4.6,10.82,7.45,17.83,7.45.25,0,.5,0,.75-.01l42.28-1.27c4.13-.12,8.07-1.24,11.56-3.22,3.31,1.61,7.03,2.53,10.99,2.53.25,0,.51,0,.76-.01l113.68-3.41c4.13-.12,8.07-1.24,11.56-3.22,3.31,1.61,7.03,2.53,10.99,2.53.25,0,.51,0,.76-.01l34.69-1.04c6.68-.2,12.87-2.99,17.45-7.85,4.58-4.86,6.99-11.21,6.79-17.89-.04-1.26-.2-2.49-.41-3.69l19.44-.58c.34-.01.69-.03,1.03-.06,11.95-1.03,20.94-10.78,21-22.73,12,9.92,27.77,15.35,46.39,15.35,9.93,0,20.43-1.57,31.25-4.66l37.76,2.12c.35.02.69.03,1.04.03,3.07,0,5.99-.59,8.66-1.65.73.86,1.6,1.66,2.67,2.36,15.05,9.94,33.22,12.71,50.68,8.54,1.5-.36,2.77-.93,3.84-1.65,5.66,7.03,13.77,11.93,22.9,13.49l69.69,11.88c2.08.35,4.2.53,6.3.53,11.19,0,21.7-4.94,28.84-13.55l8.39-10.11,38.58-1.88c.29-.01.58-.03.87-.06l.91-.09c14.3-1.44,26.08-11.3,30.68-24.33,9.22,4.42,19.29,7.29,29.83,8.43,1.92.21,3.89.35,5.87.42l1.2,14.84c.95,11.79,10.61,20.67,22.45,20.67,7.13,0,13.68-3.29,17.97-9.01l7.19-9.6c.72-.96,1.87-1.54,3.08-1.56l12.22-.19c9.45-.15,17.62-5.98,20.81-14.86.55-1.53.93-3.08,1.14-4.63,14.87,10.63,32.55,17.3,51.18,19.3,4.01.43,8.13.65,12.23.65,5.19,0,10.48-.35,15.71-1.04.1-.01.7-.1.76-.11,11.58-1.83,21.11-7.46,27.54-16.29,3.62-4.97,6.09-10.87,7.12-16.92.23-1.32.44-2.55.62-3.72l30.09,14.66c3.33,1.62,7.03,2.48,10.7,2.48h0c6.75,0,13.26-2.84,17.88-7.79,4.59-4.92,6.96-11.61,6.49-18.35Z" style="fill: #fff;"/>
  </g>
  <g>
    <g>
      <rect x="198.5" y="299.55" width="55.38" height="13.08" rx="4.25" ry="4.25" transform="translate(-9.09 6.93) rotate(-1.72)" style="fill: #69e4fe;"/>
      <rect x="264.07" y="296.51" width="126.81" height="13.08" rx="4.25" ry="4.25" transform="translate(-8.95 9.97) rotate(-1.72)" style="fill: #feb351;"/>
      <rect x="197.87" y="278.08" width="123.15" height="13.08" rx="4.25" ry="4.25" transform="translate(-8.43 7.92) rotate(-1.72)" style="fill: #cb4fff;"/>
      <rect x="401.08" y="293.58" width="47.78" height="13.08" rx="4.25" ry="4.25" transform="translate(-8.82 12.9) rotate(-1.72)" style="fill: #4fb3ff;"/>
    </g>
    <path d="M703.36,278.99l-27.22-73.5c-1.53-4.14-.74-8.79,2.08-12.19l50.04-60.32c2.82-3.4,7.24-5.04,11.59-4.29l77.26,13.18c4.35.74,7.98,3.75,9.51,7.89l27.22,73.5c1.53,4.14.74,8.79-2.08,12.19l-50.04,60.32c-2.82,3.4-7.24,5.04-11.59,4.29l-77.26-13.18c-4.35-.74-7.98-3.75-9.51-7.89Z" style="fill: #4fe5ff;"/>
    <path d="M201.03,259.56c-2.42,0-4.48-2.05-4.48-4.47V109.47c0-2.42,2.05-4.47,4.48-4.47h37.85c2.42,0,4.47,2.05,4.47,4.47v145.62c0,2.42-2.05,4.47-4.47,4.47h-37.85ZM295.37,258.44c-2.42-.19-4.29-2.24-4.29-4.66l2.98-53.7-39.71-1.86c-2.42-.19-4.29-2.24-4.29-4.48v-.37l1.49-32.63c.19-2.24,2.24-4.29,4.48-4.29h.37l39.71,2.05,2.61-50.16c.19-2.24,2.05-4.29,4.47-4.29h.37l37.48,2.05c2.42,0,4.29,2.24,4.29,4.66l-7.64,145.43c-.19,2.42-2.24,4.29-4.66,4.29l-37.66-2.05Z" style="fill: #54a8dc;"/>
    <path d="M445.72,277.32c-9.5,3.89-18.92,6.34-27.87,7.11-28.27,2.43-51.6-11.55-56.69-49.22-1.75-13.17-4.32-38.36-5.65-51.36-.72-8.34,1.99-10.21,4.41-10.62.17-.42,31.5-5.37,34.96-5.67,4.07-.35,5.87,1.54,6.28,3.97,2.39,13.52,3.74,24.47,7.05,48.57,2.32,17.42,8.94,23,17.49,22.26,4.07-.35,8.83-2.19,13.7-5.07l-2.36-70.29c0-2.46,1.89-4.26,4.13-4.45l40.67-1.24c2.44-.21,4.24,1.68,4.45,4.13l3.6,106.24c0,2.46-1.89,4.26-4.13,4.45l-40.06,1.19Z" style="fill: #1f71aa;"/>
    <path d="M120.3,257.83l-17.44-13.67c-3.17-2.48-7.59-1.87-10.01,1.38l-5.09,6.84c-2.56,3.44-1.9,8.47,1.44,11.09l13.99,10.97.59.46-.52.54-12.36,12.78c-2.95,3.05-2.91,8.13.09,11.19l5.98,6.08c2.85,2.9,7.31,2.9,10.11,0l15.4-15.93,36.72,28.78c1.53,1.2,3.59,1.22,5.12.07l16.96-12.78h0c1.24-.93,1.93-2.49,1.82-4.12l-4.38-63.82c-.11-1.62-1.01-3.07-2.36-3.83h0s-18.55-10.34-18.55-10.34c-1.68-.94-3.72-.63-5.07.77l-32.44,33.53ZM159.49,288.55l-20.49-16.06,18.1-18.72,2.39,34.78Z" style="fill: #69e5ff;"/>
    <path d="M1137.08,225.16c-3.81,2.57-3.41,8.3.72,10.31l35.09,17.1c4.13,2.01,8.89-1.2,8.57-5.78l-2.72-38.96c-.32-4.59-5.49-7.1-9.3-4.53l-32.37,21.86ZM1161.83,230.72c-1.36-.66-1.93-2.3-1.26-3.67l6.01-12.32c.66-1.36,2.3-1.93,3.67-1.26,1.36.66,1.93,2.3,1.26,3.67l-6.01,12.32c-.66,1.36-2.3,1.93-3.67,1.26ZM1157.03,240.62c-1.36-.66-1.95-2.32-1.29-3.68s2.32-1.95,3.68-1.29h.02c1.36.67,1.93,2.32,1.26,3.68-.66,1.36-2.32,1.95-3.68,1.29Z" style="fill: #feb351;"/>
    <g>
      <path d="M767.64,278.85c-8.62-.93-15.27-7.68-16.15-16.41l-.04-.43-7.7-158.04c-.17-9.4,6.78-17.19,16.17-18.14l.79-.08,42.47-2.21c.8-.02,1.6.01,2.38.1,8.62.93,15.26,7.68,16.15,16.41l.04.43,4.81,98.56,34.23-1.67c2.72-.08,5.12.38,7.42,1.31-.45-4.59-.43-9.25.07-13.92,2.29-21.33,11.98-38.48,28.01-49.59,14.24-9.87,32.8-14.16,52.24-12.07,26.04,2.8,46.81,17.19,56.91,39.01,1.49-2.72,3.15-5.34,4.98-7.84,16.8-23.07,40.75-34.19,67.43-31.32,15.39,1.66,30.83,7.82,44.64,17.83h0c9.91,7.18,18.58,16.53,23.79,25.67,6.09,10.67,6.87,20.08,2.19,26.5-.63.87-2.12,2.91-4.78,4.51l-21.64,13.89c-3.81,2.62-8.7,3.87-13.32,3.37-3.17-.34-6.17-1.48-8.68-3.3-2.95-2.14-5.21-5.36-6.36-9.09l-.18-.64c-.24-.96-2.48-4.53-6.31-7.31-2.09-1.51-4.3-2.49-6.07-2.68-1.02-.11-3.74-.4-7.79,5.15-1.71,2.35-2.41,4.77-2.01,7.01.4,2.28,1.93,4.44,4.42,6.24,4.86,3.52,12.54,5.01,21.23,4.04,1.65-.24,3.44-.27,5.21-.08,3.47.37,6.71,1.59,9.38,3.53,5.19,3.76,7.76,9.99,7.05,17.1l-.03.27-.04.26c-.41,2.91-.69,5.35-.96,7.71-.43,3.79-.83,7.31-1.67,12.02-.58,3.39-1.91,6.61-3.86,9.29-3.54,4.86-8.75,7.86-15.5,8.92l-.29.04c-7.96,1.05-15.87,1.16-23.55.34-15.65-1.68-30.46-7.31-42.83-16.27-12.21-8.84-21.47-20.29-27.09-33.41-5.49,8.96-13.33,16.67-23.02,22.56-14.98,9.11-33.74,13.49-50.17,11.72-17.96-1.93-34.17-10.16-45.63-23.16-1.27-1.44-2.47-2.93-3.6-4.47l1.05,25.1c.17,9.43-6.92,17.48-16.14,18.41l-.83.08-50.9,2.48-.86.08-42.68,2.23c-.79.02-1.59-.02-2.37-.1ZM757.99,261.61l.02.17c.57,5.63,4.82,9.98,10.33,10.57.5.05,1.01.08,1.51.06h.14s42.28-2.21,42.28-2.21l.88-.08,50.9-2.48.58-.06c5.85-.59,10.36-5.74,10.25-11.72l-1.88-44.8-2.81-3.16c-2.33-2.62-5.68-4.08-9.14-3.98l-40.72,1.99-5.14-105.18c-.57-5.63-4.82-9.98-10.33-10.57-.5-.05-1.01-.07-1.52-.06h-.13s-42.64,2.25-42.64,2.25c-5.97.6-10.39,5.55-10.28,11.52v.15s7.69,157.6,7.69,157.6ZM1003.87,206.83l2.58,8.13c4.67,14.7,14.11,27.52,27.29,37.07,11.45,8.29,25.17,13.5,39.68,15.06,7.16.77,14.54.66,21.95-.31l.21-.03c4.92-.78,8.7-2.9,11.17-6.3,1.36-1.87,2.3-4.14,2.71-6.57.81-4.53,1.2-7.96,1.61-11.58.28-2.46.56-4.94.99-7.95l.02-.14v-.14c.49-4.73-1.11-8.8-4.36-11.16-2.66-1.93-6.39-2.75-9.9-2.25-3.87.43-7.49.46-10.86.09-5.9-.63-11.1-2.48-15.04-5.33-3.89-2.82-6.32-6.42-7.02-10.4-.71-4.02.39-8.17,3.16-11.98,6.28-8.62,11.93-8.01,13.79-7.81,2.92.31,6.19,1.7,9.22,3.89,4.79,3.47,8.12,8.25,8.82,10.99l.09.32c.74,2.38,2.14,4.41,3.95,5.72,1.59,1.15,3.5,1.87,5.53,2.09,3.08.33,6.36-.51,8.98-2.31l21.81-14c1.6-.96,2.51-2.2,2.94-2.8,4.15-5.69.16-14.62-2.58-19.43-4.77-8.36-12.77-16.97-21.95-23.61-12.89-9.34-27.24-15.08-41.49-16.61-24.25-2.61-46.06,7.57-61.43,28.67-3.03,4.16-5.56,8.66-7.54,13.4l-3.36,8.05-2.77-8.28c-7.91-23.64-27.67-38.83-54.22-41.69-17.87-1.92-34.85,1.96-47.8,10.93-14.42,10-23.15,25.53-25.23,44.92-.71,6.62-.36,13.2,1.04,19.55l1.28,5.81,2.42,5.37c2.38,5.28,5.52,10.16,9.36,14.51,10.38,11.77,25.08,19.21,41.41,20.97,15.04,1.62,32.26-2.42,46.06-10.8,10.86-6.6,19.15-15.69,23.97-26.29l3.53-7.76Z" style="fill: #54a8dc;"/>
      <path d="M863.56,261.11l-50.99,2.49-.8.08-42.07,2.2c-2.64.06-4.87-1.94-5.16-4.75l-7.67-157.38c-.04-2.43,1.76-4.64,4.38-4.9l.4-.04,41.87-2.18c2.64-.06,4.87,1.94,5.16,4.75l5.43,111.38,47.15-2.3c2.84-.08,5.1,2.12,5.36,4.73l1.71,40.79c.04,2.43-1.74,4.84-4.36,5.1l-.4.04Z" style="fill: #54a8dc;"/>
      <path d="M931.01,245.19c-29.5-3.17-53.1-27.25-49.68-59.01,4-37.18,33.95-53.49,65.81-50.06,40,4.3,53.84,37.37,51.32,60.83-3.79,35.19-41.74,51.01-67.45,48.24ZM959.94,192.44c.37-3.43,1.53-21.01-16.94-23-15.2-1.64-20.93,10.71-21.8,18.83-1.34,12.45,7.54,21.8,17.86,22.91,12.85,1.38,19.77-8.46,20.88-18.75Z" style="fill: #1a5a8a;"/>
      <path d="M1114.81,200.47c-2.08,1.48-5.07,1.81-7.04.39-.66-.47-1.24-1.39-1.53-2.36-1.16-4.58-5.59-10.53-11.32-14.68-4.26-3.08-19.22-12.42-32.17,5.37-7.96,10.93-5.33,23.81,5.31,31.51,7.04,5.1,17.49,7.93,30.57,6.44,1.7-.27,3.76-.02,5.24,1.05,1.15.83,1.98,2.43,1.7,5.22-1.09,7.68-1.27,12.04-2.57,19.33-.22,1.34-.73,2.71-1.56,3.86-1.43,1.96-3.55,3.16-6.94,3.7-22.41,2.96-42.17-2.88-56.91-13.55-27.18-19.69-37.47-56.05-16.55-84.77,26.62-36.55,66.74-30.18,93.76-10.61,18.18,13.16,26.05,29.83,23.08,33.91-.24.33-.59.82-1,1.02l-22.08,14.17Z" style="fill: #54a8dc;"/>
      <path d="M948.27,230.42l4.84,59.9c.3,3.69,5.02,5.05,7.25,2.09l7.19-9.59c4.15-5.54,10.64-8.84,17.57-8.95l12.21-.19c3.71-.06,5.37-4.66,2.56-7.07l-45.82-39.13c-2.38-2.04-6.05-.18-5.79,2.94Z" style="fill: #181818;"/>
    </g>
    <path d="M1075.52,76.1c2.18,3.82,2.37,8.37,1.44,14.43,1.38.34,2.6.96,3.18,2.36l1.09,2.6c.31.75.38,1.57.18,2.36l-1.47,5.98c-.19.77-.76,1.43-1.49,1.74-8.68,3.58-18.82,5.69-28.07,3.42-10.23-2.51-19.03-10.92-23.31-16.02-.51-.61-.71-1.46-.52-2.23l1.47-5.98c.19-.79.63-1.49,1.25-2.01l2.16-1.8c1.16-.97,2.53-.96,3.91-.62,1.98-5.81,4.25-9.75,7.95-12.13,6.99-4.52,14.5-3.37,17.63-2.61l.09.02c3.07.75,10.37,3.18,14.52,10.49ZM1056.98,82.03c-.63-.16-1.37-.3-2.17-.41-.52.95-1.15,1.78-1.89,2.22-2.91,1.76-5.81,1.43-7.32,1.06-1.42-.35-2.83-1.01-3.86-2.07-1.24.1-2.48.37-2.88,1.71-.75,2.53-1.39,5.09-2.03,7.65-.32,1.28-.64,2.57-.98,3.85-.18.75.1,1.55.71,2.03,4.91,3.87,9.82,6.42,14.62,7.6,4.8,1.18,10.33,1.19,16.47.03.76-.14,1.38-.73,1.56-1.47,1.01-3.83,1.9-7.7,2.66-11.58h0c.26-1.38-.71-2.19-1.77-2.85-1.4.46-2.96.4-4.38.05-1.51-.37-4.23-1.42-6-4.33-.45-.73-.62-1.75-.65-2.84-.69-.25-1.4-.46-2.11-.64ZM1049.12,89.82c1.2.29,1.93,1.5,1.64,2.7l-.98,4c-.29,1.2-1.5,1.93-2.7,1.64-1.2-.29-1.93-1.5-1.64-2.7l.98-4c.29-1.2,1.5-1.93,2.7-1.64ZM1060.24,92.55c1.2.29,1.93,1.5,1.64,2.7h0l-.98,4c-.29,1.2-1.5,1.93-2.7,1.64-1.2-.29-1.93-1.5-1.64-2.7h0l.98-4c.29-1.2,1.5-1.93,2.7-1.64ZM1049.85,69.14c-2.39-.34-4.55-.05-5.81.77-2.75,1.84-3.76,7.96-2.83,9.53.68,1.12,2.23,2.14,4.07,2.59,1.4.34,4.15.7,6.9-1,1.2-.7,2.37-2.89,2.88-5.27.4-1.92.25-3.62-.39-4.48-.68-.98-2.57-1.8-4.82-2.14ZM1064.01,73.56c-.96.47-1.88,1.91-2.42,3.79-.65,2.35-.62,4.84.12,6.01,1.65,2.78,4.25,3.73,5.65,4.07,1.84.45,3.68.27,4.81-.41,1.55-.97,3.49-6.86,1.9-9.76-.74-1.31-2.52-2.56-4.8-3.37-2.15-.74-4.2-.89-5.26-.33ZM1058.14,77.29c-.53-.13-1.18-.25-1.89-.36-.02.38-.09.79-.16,1.23-.07.3-.15.6-.26.93.68.1,1.25.24,1.79.37s1.1.27,1.75.5c.05-.34.12-.64.2-.94.14-.43.27-.82.43-1.17-.68-.24-1.31-.43-1.84-.56Z" style="fill: #181818;"/>
    <g>
      <rect x="140.43" y="150.14" width="38.12" height="38.12" rx="4.24" ry="4.24" transform="translate(-42.84 54.62) rotate(-17.17)" style="fill: #ed4d4d;"/>
      <path d="M155.92,179.17c-.52.16-1.1.12-1.61-.15-1.03-.55-1.43-1.83-.88-2.86l8.39-15.89c.55-1.03,1.83-1.43,2.86-.88,1.03.55,1.43,1.83.88,2.86l-8.39,15.89c-.27.52-.73.87-1.25,1.03Z" style="fill: #fff;"/>
      <path d="M168.06,175.42c-.52.16-1.1.12-1.61-.15l-15.89-8.39c-1.03-.55-1.43-1.83-.88-2.86s1.83-1.43,2.86-.88l15.89,8.39c1.03.55,1.43,1.83.88,2.86-.27.52-.73.87-1.25,1.03Z" style="fill: #fff;"/>
    </g>
    <g>
      <path d="M856.56,125.44c-1.21.57-2.42.96-3.57,1.12-3.66.51-6.79-1.14-7.72-6-.32-1.7-.83-4.96-1.09-6.64-.15-1.08.19-1.34.5-1.41.02-.06,4.06-.92,4.51-.98.53-.07.77.16.84.47.41,1.74.66,3.16,1.26,6.27.42,2.25,1.32,2.93,2.43,2.77.53-.07,1.13-.35,1.75-.76l-.8-9.12c-.02-.32.22-.57.51-.61l5.28-.45c.32-.04.56.19.61.5l1.21,13.79c.02.32-.22.57-.51.61l-5.2.43Z" style="fill: #181818;"/>
      <path d="M868.15,124.61c-.58.08-.86.01-1.08-.41l-1.59-2.89c-.04-.08-.07-.15-.08-.2-.06-.39.46-.52.78-.57,1.55-.24,2.18-1.09,2.09-1.72-.05-.34-.45-.72-.88-1.14l-.82-.69c-1.34-1.15-1.98-2.22-2.12-3.22-.42-2.97,3.65-5.16,7.1-5.64,1.03-.14,1.31-.08,1.56.37l1.61,2.89c.07.1.08.18.09.26.04.29-.23.44-.58.48h-.11c-1.58.24-2.11.85-2.04,1.37.06.45.53.89,1.68,1.86,1.4,1.15,2.09,2.26,2.23,3.26.44,3.11-4.04,5.45-7.57,5.95l-.29.04Z" style="fill: #181818;"/>
      <path d="M887.77,121.91c-5.98.84-9.55-2.82-10.11-6.82-.53-3.76,1.58-8.09,7.58-8.93,6.53-.92,7.64,4.86,7.76,5.73.17,1.21-.19,2.28-1.67,3.03-1.18.59-3.09,1.16-4.45,1.4-.42.06-.58-.11-.73-.41-.44-.82-1.18-2.47-1.19-2.57-.04-.29.15-.45.48-.58,1.32-.51,1.5-.59,1.45-.96-.03-.24-.65-1.01-1.76-.85-1.26.18-2.16,1.43-1.93,3.06.26,1.87,1.93,3.78,5.22,3.32.18-.03.39-.06.58-.11h.05c.37-.06.85.11.91.56.04.26-.4,2.15-.67,3.1-.15.45-.44.87-1.21.97l-.32.04Z" style="fill: #181818;"/>
      <path d="M903.6,119.18s-.08.04-.1.04l-5.1.98h-.05c-.32.05-.62-.2-.69-.51l-3.96-20.38v-.05c-.05-.32.2-.65.51-.69l4.75-.94h.11s6.95-1.37,6.95-1.37h.05c.32-.05.65.2.72.51l.85,4.55v.05c.05.32-.2.65-.51.72l-6.09,1.18.45,2.25,4.71-.66c.32-.04.67.17.72.52v.05s.52,4.04.52,4.04c.03.37-.2.7-.57.75l-4.37.61.48,2.43,6.35-1.24h.05c.34-.06.67.19.72.51l.83,4.56c.05.34-.17.7-.54.77l-6.79,1.33Z" style="fill: #181818;"/>
      <path d="M921.9,115.85c.08.58-.28.71-.62.76,0,0-4.28.9-4.88.98h-.05c-.39.06-.7-.22-.78-.58-.47-2.59-1.15-5.91-1.67-9.03l-1.91.16c-.29.01-.57-.22-.61-.51l-.3-4.41c-.01-.29.19-.56.51-.61l1.54-.14-.06-.98c-.18-4.94,3.2-7.19,6.55-7.66,1-.14,2-.12,2.88.03.35.03.49.42.52.68v.11s-.04,3.07-.04,3.07c0,.43-.38.75-.72.8h-.08c-1.34.2-3.15.91-2.8,3.41l2.26-.18c.29-.04.56.19.61.5l.3,4.41c.01.27-.17.53-.46.57h-.05s-1.85.19-1.85.19c.5,2.8,1.15,5.91,1.7,8.3l.02.13Z" style="fill: #181818;"/>
      <path d="M934.85,114.03c.08.58-.28.71-.62.76,0,0-4.28.9-4.88.98h-.05c-.39.06-.7-.22-.78-.58-.47-2.59-1.15-5.91-1.67-9.03l-1.91.16c-.29.01-.57-.22-.61-.5l-.3-4.41c-.01-.29.19-.56.51-.61l1.54-.14-.06-.99c-.18-4.94,3.21-7.19,6.55-7.66,1-.14,2-.12,2.88.03.35.03.49.42.53.68v.11s-.04,3.07-.04,3.07c0,.43-.38.75-.72.8h-.08c-1.34.2-3.15.91-2.8,3.41l2.26-.18c.29-.04.56.19.61.51l.3,4.41c.01.27-.17.53-.46.57h-.05s-1.85.19-1.85.19c.5,2.8,1.15,5.91,1.7,8.3l.02.13Z" style="fill: #181818;"/>
      <path d="M948.03,113.44c-5.98.84-9.55-2.82-10.11-6.82-.53-3.76,1.58-8.09,7.58-8.93,6.53-.92,7.64,4.86,7.76,5.73.17,1.21-.19,2.28-1.67,3.03-1.18.59-3.09,1.16-4.45,1.4-.42.06-.58-.11-.73-.41-.44-.82-1.18-2.47-1.19-2.57-.04-.29.15-.45.48-.58,1.32-.51,1.5-.59,1.45-.96-.03-.24-.65-1.01-1.76-.85-1.26.18-2.16,1.43-1.93,3.06.26,1.87,1.93,3.78,5.22,3.32.18-.03.39-.06.58-.11h.05c.37-.06.85.11.91.56.04.26-.4,2.15-.67,3.1-.15.45-.44.87-1.21.97l-.32.04Z" style="fill: #181818;"/>
      <path d="M967.64,99.6c-.06.33-.31.63-.63.68-.11.01-.24-.02-.36-.08-.53-.33-1.49-.49-2.41-.36-.68.1-2.95.58-2.55,3.45.25,1.76,1.67,2.74,3.39,2.5,1.13-.16,2.38-.84,3.48-2.18.14-.18.35-.35.59-.38.18-.03.41.05.64.34.6.83.98,1.26,1.53,2.07.1.15.18.32.21.51.04.32-.05.62-.32.98-1.85,2.33-4.25,3.58-6.62,3.91-4.37.61-8.67-1.9-9.32-6.53-.83-5.9,3.55-8.95,7.89-9.57,2.92-.41,5.19.45,5.28,1.11,0,.05.02.13,0,.19l-.79,3.36Z" style="fill: #181818;"/>
      <path d="M982.19,107.65c-.14.53-.34.83-.74.88-.08.01-.16.02-.24,0-4.36-.25-6.16-2.36-7.22-9l-1.99.17c-.29.01-.57-.22-.61-.5l-.3-4.41c-.01-.29.19-.56.51-.61l1.7-.13c-.09-1.01-.19-2.09-.27-3.24-.02-.32-.04-.83.65-.92h.11s5.01-.48,5.01-.48c.45-.04.7.2.76.64.1,1.11.19,2.28.26,3.4l1.83-.15c.29-.04.56.19.61.5l.3,4.41c.01.27-.17.53-.46.57h-.05s-1.75.17-1.75.17c.34,2.4.91,4.17,2.14,4.51.31.09.64.15.68.44,0,.05,0,.14-.02.22l-.9,3.51Z" style="fill: #181818;"/>
      <path d="M994.39,107.74c-.1.07-.17.1-.28.12-.16.02-.33-.03-.54-.22-1.68-1.43-5.56-5.02-6.46-11.39-.88-6.27,1.74-10.74,3-12.64.13-.21.32-.42.58-.46.08-.01.19.03.3.06l.77.3c.2.11.35.22.38.4.02.16,0,.32-.16.56-1.32,2.09-3.29,6.61-2.61,11.45.71,5.08,4.01,8.86,5.78,10.41.15.14.22.26.24.37.03.21-.14.34-.28.47l-.73.56Z" style="fill: #181818;"/>
      <path d="M997.7,106.82c-.17-.08-.37-.16-.4-.37-.01-.11.02-.24.13-.42,1.28-1.98,3.41-6.52,2.69-11.6-.68-4.84-3.82-8.65-5.66-10.29-.21-.18-.29-.34-.31-.49-.03-.18.09-.34.25-.49l.66-.5c.1-.07.2-.13.27-.15.26-.04.5.12.68.28,1.74,1.47,5.49,5.05,6.37,11.32.89,6.37-1.85,10.89-3.07,12.73-.15.24-.3.34-.46.36-.11.01-.19,0-.3-.04l-.85-.34Z" style="fill: #181818;"/>
    </g>
    <g>
      <path d="M592.37,194.39l-4.15-6.61h-.01c-.13-.44-.4-.85-.74-1.14-.9-.76-2.12-.99-2.93-1.92-.2-.23-.35-.5-.43-.79-.51-1.86,2.05-2.85,1.63-4.73-.09-.42-.33-.79-.65-1.07-.73-.64-1.7-.73-2.61-.61-.92.12-1.82.43-2.74.52-.23.02-.47,0-.71-.08-1.07-.31-1.82-1.32-1.98-2.48-.21-1.48-1.01-2.87-2.19-3.71-1.49-1.06-3.52-1.19-5.12-.34-.96.51-1.9,1.37-2.96,1.14-.74-.16-1.28-.83-1.95-1.2-.84-.47-1.92-.43-2.73.09-.81.52-1.25,1.75-1.57,2.7-.61,1.81-2.7,2.67-4.49,2.35s-3.31-1.54-4.66-2.83c-1.35-1.29-2.63-2.7-4.25-3.57-2.02-1.08-4.49-1.19-6.59-.3-2.1.89-3.81,2.78-4.56,5.04-.82,2.47-.5,5.23.37,7.68.07.19.16.37.23.55l-17.4,13.71,13.83,47.05s45.66,5.16,47.64,4.56c1.98-.6,27.62-14.29,27.62-14.29l-15.91-39.7Z" style="fill: #650000;"/>
      <path d="M583.82,263.87c-10.04,3.14-19.86,4.81-29.06,4.81-29.06,0-51.65-16.31-53.53-55.2-.63-13.59-1.05-39.52-1.25-52.9,0-8.57,2.93-10.25,5.44-10.45.21-.42,32.62-2.72,36.17-2.72,4.18,0,5.85,2.09,6.06,4.6,1.25,14.01,1.67,25.3,2.93,50.18.84,17.98,7.11,24.25,15.89,24.25,4.18,0,9.2-1.46,14.43-3.97l3.76-71.93c.21-2.51,2.3-4.18,4.6-4.18l41.61,2.3c2.51,0,4.18,2.09,4.18,4.6l-5.65,108.73c-.21,2.51-2.3,4.18-4.6,4.18l-40.98-2.3Z" style="fill: #90c6e9;"/>
      <path d="M663.02,180.87c-3.41-9.11-12.04-15.77-22.35-16.16l-6.48-.25-3.8,41.61-1.4,15.39,9.48.36c13.71.53,25.29-10.2,25.81-23.9l.28-7.4c.13-3.39-.43-6.66-1.55-9.65ZM632.1,210.7l.17-3.62,1.5-31.75,6.48.25c7.71.3,13.75,6.81,13.45,14.53l-.28,7.4c-.3,7.72-6.81,13.75-14.53,13.45l-6.79-.26Z" style="fill: #90c6e9;"/>
      <path d="M609.29,127.02c-1.66-1.17-3.75-1.82-6.22-1.92h0c-5.32-.23-14.94,6.12-17.49,12.92-.27.72-.12,1.54.38,2.1.31.35.72.56,1.15.62.27.03.54.01.81-.08,2.22-.74,4.43-.85,6.94-.33.7.14,1.39.31,2.12.48,2.49.6,5.07,1.21,7.79.89,3.97-.48,8.06-3.67,8.04-8.19-.01-2.48-1.36-4.97-3.52-6.49Z" style="fill: #650000;"/>
      <path d="M542.33,120.75c-2.81-5.93-13.89-9.73-16.47-10.17-5.56-.95-10.98,1.05-13.79,5.09-1.71,2.46-2.64,6.36-.86,9.51,1.19,2.11,3.45,3.48,6.09,3.83.82.11,1.69.11,2.57.01,2.03-.24,3.88-.94,5.67-1.62.73-.28,1.42-.54,2.12-.77,2.65-.87,4.67-.92,6.17-.14.32.17.67.4,1.03.64.61.41,1.31.88,2.14,1.19,1.8.67,4.28.27,5.32-1.8.92-1.85.93-3.85.02-5.77Z" style="fill: #650000;"/>
      <g>
        <path d="M572.71,119.45c-3.89.32-7.47-4.51-8-10.8-.5-5.99,1.94-11.13,5.53-11.89.18-.04.37-.07.55-.08.07,0,.15-.02.23-.03,14.86-1.75,17.73,21.46,1.68,22.8Z" style="fill: #ad651e;"/>
        <path d="M572.33,120.38c-4.27,0-7.97-4.99-8.53-11.65-.27-3.21.26-6.3,1.48-8.72,1.29-2.55,3.22-4.06,5.42-4.25,4.61-.61,8.58.97,11.17,4.44,2.77,3.72,3.35,9.03,1.46,13.23-1.83,4.05-5.57,6.51-10.54,6.93h0c-.15.01-.31.02-.46.02ZM572.71,119.45h0,0ZM572.59,97.47c-.54,0-1.1.04-1.66.11-.02,0-.03,0-.05,0-1.55.13-2.96,1.29-3.96,3.25-1.07,2.11-1.53,4.86-1.29,7.73.48,5.68,3.67,10.24,7.01,9.96,4.28-.36,7.48-2.44,9.03-5.86,1.63-3.61,1.12-8.19-1.26-11.38-1.86-2.5-4.6-3.83-7.81-3.83Z" style="fill: #650000;"/>
        <path d="M572.71,120.36c-.47,0-.87-.36-.91-.84-.04-.5.33-.95.84-.99,3.32-.28,5.73-5.31,5.25-10.99-.48-5.68-3.69-10.24-7.01-9.96-.5.04-.95-.33-.99-.84-.04-.5.33-.95.84-.99,4.46-.38,8.41,4.74,8.98,11.63.58,6.9-2.46,12.59-6.92,12.97-.03,0-.05,0-.08,0Z" style="fill: #650000;"/>
        <path d="M570.56,96.87c-.22.94-.38,1.88-.4,2.8-.03.93.09,1.84.31,2.72.44,1.78,1.34,3.47,2.14,5.31.4.92.78,1.88,1.04,2.89.26,1.01.4,2.09.36,3.15-.04,1.06-.25,2.11-.6,3.09-.36.97-.84,1.88-1.41,2.72-.1.15-.31.19-.45.09-.12-.08-.17-.24-.13-.37h0c.31-.94.61-1.84.79-2.77l.12-.69.07-.69c.02-.23.02-.46.03-.69,0-.23-.01-.46-.01-.68-.05-.91-.21-1.8-.48-2.68-.26-.88-.62-1.76-1-2.64-.38-.89-.79-1.79-1.16-2.74-.37-.95-.67-1.95-.84-2.99-.16-1.04-.16-2.12.01-3.15.18-1.03.52-2.02,1-2.92.08-.16.28-.22.44-.14.13.07.2.22.16.36h0Z" style="fill: #650000;"/>
        <path d="M593.54,106.01c-2.96-2.54-2.03-8.48,2.08-13.27,3.91-4.56,9.29-6.43,12.36-4.41.15.1.3.21.45.34.06.05.12.09.18.14,11.68,9.35-2.84,27.69-15.06,17.2Z" style="fill: #ad651e;"/>
        <path d="M601.31,110.08c-2.9,0-5.77-1.14-8.37-3.37,0,0,0,0,0,0-3.4-2.92-2.53-9.31,1.98-14.57,2.1-2.44,4.67-4.24,7.25-5.06,2.72-.87,5.15-.55,6.83.88,3.67,2.86,5.33,6.79,4.68,11.07-.7,4.58-4.08,8.73-8.4,10.33-1.31.48-2.64.72-3.97.72ZM594.14,105.31c3.26,2.8,6.99,3.62,10.51,2.32,3.71-1.38,6.62-4.95,7.22-8.89.55-3.6-.87-6.92-4-9.35-.01,0-.02-.02-.04-.03-1.18-1.01-2.99-1.21-5.1-.54-2.26.72-4.54,2.32-6.41,4.51-3.71,4.32-4.71,9.81-2.18,11.98h0Z" style="fill: #650000;"/>
        <path d="M596.91,108.08c-1.54,0-2.9-.46-3.96-1.37-.38-.33-.43-.91-.1-1.29.33-.38.91-.43,1.29-.1,1.18,1.01,2.99,1.2,5.1.54,2.26-.72,4.54-2.32,6.41-4.51,1.88-2.19,3.11-4.68,3.48-7.02.34-2.18-.12-3.94-1.3-4.96-.38-.33-.43-.91-.1-1.29.33-.38.91-.43,1.29-.1,1.68,1.44,2.36,3.8,1.92,6.63-.42,2.67-1.8,5.49-3.9,7.93-2.1,2.44-4.67,4.24-7.25,5.06-1.01.32-1.98.48-2.89.48Z" style="fill: #650000;"/>
        <path d="M608.11,88.63c-.83.5-1.61,1.04-2.28,1.69-.68.63-1.24,1.35-1.72,2.14-.96,1.56-1.54,3.39-2.28,5.25-.37.93-.79,1.87-1.33,2.77-.54.9-1.2,1.75-1.99,2.47-.78.72-1.68,1.3-2.62,1.74-.95.42-1.93.73-2.92.91-.18.03-.35-.09-.38-.26-.03-.15.05-.29.18-.35h0c.88-.43,1.73-.86,2.51-1.38l.57-.4.54-.43c.18-.15.34-.31.51-.46.17-.15.32-.33.48-.49.61-.67,1.13-1.42,1.57-2.23.44-.81.81-1.68,1.18-2.57.36-.9.72-1.82,1.14-2.75.42-.92.91-1.85,1.54-2.7.63-.85,1.39-1.6,2.25-2.21.86-.6,1.81-1.04,2.78-1.34.17-.05.35.05.41.22.04.15-.02.3-.14.37h0Z" style="fill: #650000;"/>
      </g>
    </g>
  </g>
</svg>